<mxfile host="app.diagrams.net" agent="Mozilla/5.0 (Macintosh; Intel Mac OS X 10_15_7) AppleWebKit/537.36 (KHTML, like Gecko) Chrome/137.0.0.0 Safari/537.36 Edg/137.0.0.0" version="27.1.4">
  <diagram name="第 1 页" id="N1XZCD-NdG64AehhupZl">
    <mxGraphModel dx="1065" dy="630" grid="1" gridSize="10" guides="1" tooltips="1" connect="1" arrows="1" fold="1" page="1" pageScale="1" pageWidth="827" pageHeight="1169" math="0" shadow="0">
      <root>
        <mxCell id="0" />
        <mxCell id="1" parent="0" />
        <mxCell id="JxHWnxE5Aslp0J2o-oAz-1" value="组装" style="swimlane;childLayout=stackLayout;resizeParent=1;resizeParentMax=0;startSize=20;html=1;fillColor=#FFFFFF;" vertex="1" parent="1">
          <mxGeometry x="550" y="110" width="1040" height="3108" as="geometry" />
        </mxCell>
        <mxCell id="JxHWnxE5Aslp0J2o-oAz-2" value="cets" style="swimlane;startSize=20;html=1;fillColor=#FFFFFF;" vertex="1" parent="JxHWnxE5Aslp0J2o-oAz-1">
          <mxGeometry y="20" width="320" height="3088" as="geometry" />
        </mxCell>
        <mxCell id="JxHWnxE5Aslp0J2o-oAz-3" style="edgeStyle=orthogonalEdgeStyle;rounded=0;orthogonalLoop=1;jettySize=auto;html=1;" edge="1" parent="JxHWnxE5Aslp0J2o-oAz-2" source="JxHWnxE5Aslp0J2o-oAz-22" target="JxHWnxE5Aslp0J2o-oAz-8">
          <mxGeometry relative="1" as="geometry" />
        </mxCell>
        <mxCell id="JxHWnxE5Aslp0J2o-oAz-4" style="edgeStyle=orthogonalEdgeStyle;rounded=0;orthogonalLoop=1;jettySize=auto;html=1;entryX=0.5;entryY=0;entryDx=0;entryDy=0;exitX=0;exitY=0.5;exitDx=0;exitDy=0;" edge="1" parent="JxHWnxE5Aslp0J2o-oAz-2" source="JxHWnxE5Aslp0J2o-oAz-8" target="JxHWnxE5Aslp0J2o-oAz-9">
          <mxGeometry relative="1" as="geometry" />
        </mxCell>
        <mxCell id="JxHWnxE5Aslp0J2o-oAz-5" value="cets" style="edgeLabel;html=1;align=center;verticalAlign=middle;resizable=0;points=[];" vertex="1" connectable="0" parent="JxHWnxE5Aslp0J2o-oAz-4">
          <mxGeometry x="0.0694" y="-1" relative="1" as="geometry">
            <mxPoint as="offset" />
          </mxGeometry>
        </mxCell>
        <mxCell id="JxHWnxE5Aslp0J2o-oAz-6" style="edgeStyle=orthogonalEdgeStyle;rounded=0;orthogonalLoop=1;jettySize=auto;html=1;exitX=1;exitY=0.5;exitDx=0;exitDy=0;" edge="1" parent="JxHWnxE5Aslp0J2o-oAz-2" source="JxHWnxE5Aslp0J2o-oAz-8" target="JxHWnxE5Aslp0J2o-oAz-10">
          <mxGeometry relative="1" as="geometry" />
        </mxCell>
        <mxCell id="JxHWnxE5Aslp0J2o-oAz-7" value="flux" style="edgeLabel;html=1;align=center;verticalAlign=middle;resizable=0;points=[];" vertex="1" connectable="0" parent="JxHWnxE5Aslp0J2o-oAz-6">
          <mxGeometry x="0.15" y="-1" relative="1" as="geometry">
            <mxPoint as="offset" />
          </mxGeometry>
        </mxCell>
        <mxCell id="JxHWnxE5Aslp0J2o-oAz-8" value="库存所属" style="rhombus;whiteSpace=wrap;html=1;" vertex="1" parent="JxHWnxE5Aslp0J2o-oAz-2">
          <mxGeometry x="120" y="208" width="80" height="40" as="geometry" />
        </mxCell>
        <mxCell id="JxHWnxE5Aslp0J2o-oAz-9" value="锁定库存" style="rounded=0;whiteSpace=wrap;html=1;fontSize=10;" vertex="1" parent="JxHWnxE5Aslp0J2o-oAz-2">
          <mxGeometry x="60" y="268" width="80" height="40" as="geometry" />
        </mxCell>
        <mxCell id="JxHWnxE5Aslp0J2o-oAz-10" value="占sku" style="rounded=0;whiteSpace=wrap;html=1;fontSize=10;" vertex="1" parent="JxHWnxE5Aslp0J2o-oAz-2">
          <mxGeometry x="180" y="268" width="80" height="40" as="geometry" />
        </mxCell>
        <mxCell id="JxHWnxE5Aslp0J2o-oAz-11" value="接收预占结果" style="rounded=0;whiteSpace=wrap;html=1;fontSize=10;" vertex="1" parent="JxHWnxE5Aslp0J2o-oAz-2">
          <mxGeometry x="180" y="388" width="80" height="40" as="geometry" />
        </mxCell>
        <mxCell id="JxHWnxE5Aslp0J2o-oAz-12" style="edgeStyle=orthogonalEdgeStyle;rounded=0;orthogonalLoop=1;jettySize=auto;html=1;entryX=0.5;entryY=0;entryDx=0;entryDy=0;" edge="1" parent="JxHWnxE5Aslp0J2o-oAz-2" source="JxHWnxE5Aslp0J2o-oAz-13" target="JxHWnxE5Aslp0J2o-oAz-15">
          <mxGeometry relative="1" as="geometry" />
        </mxCell>
        <mxCell id="JxHWnxE5Aslp0J2o-oAz-13" value="返回加工单信息（sku放到那个框中）" style="rounded=0;whiteSpace=wrap;html=1;fontSize=10;" vertex="1" parent="JxHWnxE5Aslp0J2o-oAz-2">
          <mxGeometry x="200" y="749" width="80" height="40" as="geometry" />
        </mxCell>
        <mxCell id="JxHWnxE5Aslp0J2o-oAz-14" style="edgeStyle=orthogonalEdgeStyle;rounded=0;orthogonalLoop=1;jettySize=auto;html=1;entryX=0.5;entryY=0;entryDx=0;entryDy=0;" edge="1" parent="JxHWnxE5Aslp0J2o-oAz-2" source="JxHWnxE5Aslp0J2o-oAz-15" target="JxHWnxE5Aslp0J2o-oAz-16">
          <mxGeometry relative="1" as="geometry" />
        </mxCell>
        <mxCell id="JxHWnxE5Aslp0J2o-oAz-15" value="创建拣货" style="rounded=0;whiteSpace=wrap;html=1;fontSize=10;" vertex="1" parent="JxHWnxE5Aslp0J2o-oAz-2">
          <mxGeometry x="80" y="849" width="80" height="40" as="geometry" />
        </mxCell>
        <mxCell id="JxHWnxE5Aslp0J2o-oAz-16" value="通知cis（包含fcu框号信息）" style="rounded=0;whiteSpace=wrap;html=1;fontSize=10;" vertex="1" parent="JxHWnxE5Aslp0J2o-oAz-2">
          <mxGeometry x="80" y="929" width="80" height="40" as="geometry" />
        </mxCell>
        <mxCell id="JxHWnxE5Aslp0J2o-oAz-17" style="edgeStyle=orthogonalEdgeStyle;rounded=0;orthogonalLoop=1;jettySize=auto;html=1;" edge="1" parent="JxHWnxE5Aslp0J2o-oAz-2" source="JxHWnxE5Aslp0J2o-oAz-18" target="JxHWnxE5Aslp0J2o-oAz-25">
          <mxGeometry relative="1" as="geometry">
            <mxPoint x="160" y="1429" as="targetPoint" />
          </mxGeometry>
        </mxCell>
        <mxCell id="JxHWnxE5Aslp0J2o-oAz-18" value="接受拣货结果" style="rounded=0;whiteSpace=wrap;html=1;fontSize=10;" vertex="1" parent="JxHWnxE5Aslp0J2o-oAz-2">
          <mxGeometry x="120" y="1349" width="80" height="40" as="geometry" />
        </mxCell>
        <mxCell id="JxHWnxE5Aslp0J2o-oAz-19" style="edgeStyle=orthogonalEdgeStyle;rounded=0;orthogonalLoop=1;jettySize=auto;html=1;" edge="1" parent="JxHWnxE5Aslp0J2o-oAz-2" source="JxHWnxE5Aslp0J2o-oAz-20" target="JxHWnxE5Aslp0J2o-oAz-28">
          <mxGeometry relative="1" as="geometry" />
        </mxCell>
        <mxCell id="JxHWnxE5Aslp0J2o-oAz-20" value="接受加工结果" style="rounded=0;whiteSpace=wrap;html=1;fontSize=10;" vertex="1" parent="JxHWnxE5Aslp0J2o-oAz-2">
          <mxGeometry x="120" y="1847" width="80" height="40" as="geometry" />
        </mxCell>
        <mxCell id="JxHWnxE5Aslp0J2o-oAz-21" value="点击创建拣货单" style="rounded=0;whiteSpace=wrap;html=1;fontSize=10;" vertex="1" parent="JxHWnxE5Aslp0J2o-oAz-2">
          <mxGeometry x="80" y="628" width="80" height="40" as="geometry" />
        </mxCell>
        <mxCell id="JxHWnxE5Aslp0J2o-oAz-22" value="锁定库存脚本" style="rounded=0;whiteSpace=wrap;html=1;fontSize=10;" vertex="1" parent="JxHWnxE5Aslp0J2o-oAz-2">
          <mxGeometry x="120" y="148" width="80" height="40" as="geometry" />
        </mxCell>
        <mxCell id="JxHWnxE5Aslp0J2o-oAz-23" style="edgeStyle=orthogonalEdgeStyle;rounded=0;orthogonalLoop=1;jettySize=auto;html=1;entryX=0.5;entryY=0;entryDx=0;entryDy=0;" edge="1" parent="JxHWnxE5Aslp0J2o-oAz-2" source="JxHWnxE5Aslp0J2o-oAz-24" target="JxHWnxE5Aslp0J2o-oAz-22">
          <mxGeometry relative="1" as="geometry" />
        </mxCell>
        <mxCell id="JxHWnxE5Aslp0J2o-oAz-24" value="创建fcu组装计划" style="rounded=0;whiteSpace=wrap;html=1;fontSize=10;" vertex="1" parent="JxHWnxE5Aslp0J2o-oAz-2">
          <mxGeometry x="120" y="68" width="80" height="40" as="geometry" />
        </mxCell>
        <mxCell id="JxHWnxE5Aslp0J2o-oAz-25" value="接受拣货结果到分拣单" style="rounded=0;whiteSpace=wrap;html=1;fontSize=10;" vertex="1" parent="JxHWnxE5Aslp0J2o-oAz-2">
          <mxGeometry x="120" y="1668" width="80" height="40" as="geometry" />
        </mxCell>
        <mxCell id="JxHWnxE5Aslp0J2o-oAz-26" value="计算sku出库数" style="rounded=0;whiteSpace=wrap;html=1;fontSize=10;" vertex="1" parent="JxHWnxE5Aslp0J2o-oAz-2">
          <mxGeometry x="120" y="1967" width="80" height="40" as="geometry" />
        </mxCell>
        <mxCell id="JxHWnxE5Aslp0J2o-oAz-27" style="edgeStyle=orthogonalEdgeStyle;rounded=0;orthogonalLoop=1;jettySize=auto;html=1;" edge="1" parent="JxHWnxE5Aslp0J2o-oAz-2" source="JxHWnxE5Aslp0J2o-oAz-28" target="JxHWnxE5Aslp0J2o-oAz-26">
          <mxGeometry relative="1" as="geometry" />
        </mxCell>
        <mxCell id="JxHWnxE5Aslp0J2o-oAz-28" value="查询fcu关联map" style="rounded=0;whiteSpace=wrap;html=1;fontSize=10;" vertex="1" parent="JxHWnxE5Aslp0J2o-oAz-2">
          <mxGeometry x="120" y="1907" width="80" height="40" as="geometry" />
        </mxCell>
        <mxCell id="JxHWnxE5Aslp0J2o-oAz-29" style="edgeStyle=orthogonalEdgeStyle;rounded=0;orthogonalLoop=1;jettySize=auto;html=1;" edge="1" parent="JxHWnxE5Aslp0J2o-oAz-2" source="JxHWnxE5Aslp0J2o-oAz-30" target="JxHWnxE5Aslp0J2o-oAz-31">
          <mxGeometry relative="1" as="geometry" />
        </mxCell>
        <mxCell id="JxHWnxE5Aslp0J2o-oAz-30" value="计算余料供应商" style="rounded=0;whiteSpace=wrap;html=1;fontSize=10;" vertex="1" parent="JxHWnxE5Aslp0J2o-oAz-2">
          <mxGeometry x="120" y="2097" width="80" height="40" as="geometry" />
        </mxCell>
        <mxCell id="JxHWnxE5Aslp0J2o-oAz-31" value="查询flux余料拣货二维码" style="rounded=0;whiteSpace=wrap;html=1;fontSize=10;" vertex="1" parent="JxHWnxE5Aslp0J2o-oAz-2">
          <mxGeometry x="120" y="2157" width="80" height="40" as="geometry" />
        </mxCell>
        <mxCell id="JxHWnxE5Aslp0J2o-oAz-32" value="converter" style="swimlane;startSize=20;html=1;" vertex="1" parent="JxHWnxE5Aslp0J2o-oAz-1">
          <mxGeometry x="320" y="20" width="360" height="3088" as="geometry" />
        </mxCell>
        <mxCell id="JxHWnxE5Aslp0J2o-oAz-33" value="执行预占" style="rounded=0;whiteSpace=wrap;html=1;fontSize=10;" vertex="1" parent="JxHWnxE5Aslp0J2o-oAz-32">
          <mxGeometry x="140" y="328" width="80" height="40" as="geometry" />
        </mxCell>
        <mxCell id="JxHWnxE5Aslp0J2o-oAz-34" style="edgeStyle=orthogonalEdgeStyle;rounded=0;orthogonalLoop=1;jettySize=auto;html=1;" edge="1" parent="JxHWnxE5Aslp0J2o-oAz-32" source="JxHWnxE5Aslp0J2o-oAz-35" target="JxHWnxE5Aslp0J2o-oAz-38">
          <mxGeometry relative="1" as="geometry" />
        </mxCell>
        <mxCell id="JxHWnxE5Aslp0J2o-oAz-35" value="接收组装计划" style="rounded=0;whiteSpace=wrap;html=1;fontSize=10;" vertex="1" parent="JxHWnxE5Aslp0J2o-oAz-32">
          <mxGeometry x="140" y="929" width="80" height="40" as="geometry" />
        </mxCell>
        <mxCell id="JxHWnxE5Aslp0J2o-oAz-36" style="edgeStyle=orthogonalEdgeStyle;rounded=0;orthogonalLoop=1;jettySize=auto;html=1;entryX=0.5;entryY=0;entryDx=0;entryDy=0;" edge="1" parent="JxHWnxE5Aslp0J2o-oAz-32" source="JxHWnxE5Aslp0J2o-oAz-38" target="JxHWnxE5Aslp0J2o-oAz-51">
          <mxGeometry relative="1" as="geometry">
            <mxPoint x="180" y="1108.9999999999998" as="targetPoint" />
          </mxGeometry>
        </mxCell>
        <mxCell id="JxHWnxE5Aslp0J2o-oAz-37" style="edgeStyle=orthogonalEdgeStyle;rounded=0;orthogonalLoop=1;jettySize=auto;html=1;entryX=0.5;entryY=0;entryDx=0;entryDy=0;" edge="1" parent="JxHWnxE5Aslp0J2o-oAz-32" source="JxHWnxE5Aslp0J2o-oAz-38" target="JxHWnxE5Aslp0J2o-oAz-49">
          <mxGeometry relative="1" as="geometry" />
        </mxCell>
        <mxCell id="JxHWnxE5Aslp0J2o-oAz-38" value="保存组装计划单据" style="rounded=0;whiteSpace=wrap;html=1;fontSize=10;fillColor=#d5e8d4;strokeColor=#82b366;" vertex="1" parent="JxHWnxE5Aslp0J2o-oAz-32">
          <mxGeometry x="140" y="1029" width="80" height="40" as="geometry" />
        </mxCell>
        <mxCell id="JxHWnxE5Aslp0J2o-oAz-39" style="edgeStyle=orthogonalEdgeStyle;rounded=0;orthogonalLoop=1;jettySize=auto;html=1;entryX=0.5;entryY=0;entryDx=0;entryDy=0;dashed=1;" edge="1" parent="JxHWnxE5Aslp0J2o-oAz-32" source="JxHWnxE5Aslp0J2o-oAz-42" target="JxHWnxE5Aslp0J2o-oAz-64">
          <mxGeometry relative="1" as="geometry" />
        </mxCell>
        <mxCell id="JxHWnxE5Aslp0J2o-oAz-40" style="edgeStyle=orthogonalEdgeStyle;rounded=0;orthogonalLoop=1;jettySize=auto;html=1;entryX=0.5;entryY=0;entryDx=0;entryDy=0;exitX=0.5;exitY=1;exitDx=0;exitDy=0;dashed=1;" edge="1" parent="JxHWnxE5Aslp0J2o-oAz-32" source="JxHWnxE5Aslp0J2o-oAz-42" target="JxHWnxE5Aslp0J2o-oAz-63">
          <mxGeometry relative="1" as="geometry" />
        </mxCell>
        <mxCell id="JxHWnxE5Aslp0J2o-oAz-42" value="捡货完成（实际拣货数量，标签）" style="rounded=0;whiteSpace=wrap;html=1;fontSize=10;" vertex="1" parent="JxHWnxE5Aslp0J2o-oAz-32">
          <mxGeometry x="140" y="1349" width="80" height="40" as="geometry" />
        </mxCell>
        <mxCell id="JxHWnxE5Aslp0J2o-oAz-43" value="生成余料入库单" style="rounded=0;whiteSpace=wrap;html=1;fontSize=10;fillColor=#ffe6cc;strokeColor=#d79b00;" vertex="1" parent="JxHWnxE5Aslp0J2o-oAz-32">
          <mxGeometry x="141" y="2767" width="80" height="40" as="geometry" />
        </mxCell>
        <mxCell id="JxHWnxE5Aslp0J2o-oAz-44" value="查询sku待出库库存供应商记录" style="rounded=0;whiteSpace=wrap;html=1;fontSize=10;" vertex="1" parent="JxHWnxE5Aslp0J2o-oAz-32">
          <mxGeometry x="140" y="2016" width="80" height="40" as="geometry" />
        </mxCell>
        <mxCell id="JxHWnxE5Aslp0J2o-oAz-45" value="接收余料信息" style="rounded=0;whiteSpace=wrap;html=1;fontSize=10;" vertex="1" parent="JxHWnxE5Aslp0J2o-oAz-32">
          <mxGeometry x="141" y="2687" width="80" height="40" as="geometry" />
        </mxCell>
        <mxCell id="JxHWnxE5Aslp0J2o-oAz-46" style="edgeStyle=orthogonalEdgeStyle;rounded=0;orthogonalLoop=1;jettySize=auto;html=1;entryX=0.5;entryY=0;entryDx=0;entryDy=0;exitX=0.5;exitY=1;exitDx=0;exitDy=0;" edge="1" parent="JxHWnxE5Aslp0J2o-oAz-32" source="JxHWnxE5Aslp0J2o-oAz-45">
          <mxGeometry relative="1" as="geometry">
            <mxPoint x="181" y="2766" as="targetPoint" />
          </mxGeometry>
        </mxCell>
        <mxCell id="JxHWnxE5Aslp0J2o-oAz-47" value="接收入库结果" style="rounded=0;whiteSpace=wrap;html=1;fontSize=10;" vertex="1" parent="JxHWnxE5Aslp0J2o-oAz-32">
          <mxGeometry x="141" y="2927" width="80" height="40" as="geometry" />
        </mxCell>
        <mxCell id="JxHWnxE5Aslp0J2o-oAz-48" style="edgeStyle=orthogonalEdgeStyle;rounded=0;orthogonalLoop=1;jettySize=auto;html=1;" edge="1" parent="JxHWnxE5Aslp0J2o-oAz-32" source="JxHWnxE5Aslp0J2o-oAz-49" target="JxHWnxE5Aslp0J2o-oAz-52">
          <mxGeometry relative="1" as="geometry" />
        </mxCell>
        <mxCell id="JxHWnxE5Aslp0J2o-oAz-49" value="创建fcu加工入库单（未在切换清单中的，不下发wms）" style="rounded=0;whiteSpace=wrap;html=1;fontSize=10;fillColor=#fff2cc;strokeColor=#d6b656;" vertex="1" parent="JxHWnxE5Aslp0J2o-oAz-32">
          <mxGeometry x="240" y="1108" width="80" height="40" as="geometry" />
        </mxCell>
        <mxCell id="JxHWnxE5Aslp0J2o-oAz-50" style="edgeStyle=orthogonalEdgeStyle;rounded=0;orthogonalLoop=1;jettySize=auto;html=1;" edge="1" parent="JxHWnxE5Aslp0J2o-oAz-32" source="JxHWnxE5Aslp0J2o-oAz-51" target="JxHWnxE5Aslp0J2o-oAz-53">
          <mxGeometry relative="1" as="geometry" />
        </mxCell>
        <mxCell id="JxHWnxE5Aslp0J2o-oAz-51" value="创建fcu加工出库单（未在切换清单中的，不下发wms）" style="rounded=0;whiteSpace=wrap;html=1;fontSize=10;fillColor=#fff2cc;strokeColor=#d6b656;" vertex="1" parent="JxHWnxE5Aslp0J2o-oAz-32">
          <mxGeometry x="40" y="1108" width="80" height="40" as="geometry" />
        </mxCell>
        <mxCell id="JxHWnxE5Aslp0J2o-oAz-52" value="下发入库单" style="rounded=0;whiteSpace=wrap;html=1;fontSize=10;" vertex="1" parent="JxHWnxE5Aslp0J2o-oAz-32">
          <mxGeometry x="240" y="1188" width="80" height="40" as="geometry" />
        </mxCell>
        <mxCell id="JxHWnxE5Aslp0J2o-oAz-53" value="下发出库单" style="rounded=0;whiteSpace=wrap;html=1;fontSize=10;" vertex="1" parent="JxHWnxE5Aslp0J2o-oAz-32">
          <mxGeometry x="40" y="1268" width="80" height="40" as="geometry" />
        </mxCell>
        <mxCell id="JxHWnxE5Aslp0J2o-oAz-54" style="edgeStyle=orthogonalEdgeStyle;rounded=0;orthogonalLoop=1;jettySize=auto;html=1;entryX=0.5;entryY=0;entryDx=0;entryDy=0;" edge="1" parent="JxHWnxE5Aslp0J2o-oAz-32" source="JxHWnxE5Aslp0J2o-oAz-55" target="JxHWnxE5Aslp0J2o-oAz-59">
          <mxGeometry relative="1" as="geometry" />
        </mxCell>
        <mxCell id="JxHWnxE5Aslp0J2o-oAz-55" value="接收加工结果" style="rounded=0;whiteSpace=wrap;html=1;fontSize=10;" vertex="1" parent="JxHWnxE5Aslp0J2o-oAz-32">
          <mxGeometry x="140" y="2228" width="80" height="40" as="geometry" />
        </mxCell>
        <mxCell id="JxHWnxE5Aslp0J2o-oAz-56" style="edgeStyle=orthogonalEdgeStyle;rounded=0;orthogonalLoop=1;jettySize=auto;html=1;entryX=0.5;entryY=0;entryDx=0;entryDy=0;dashed=1;" edge="1" parent="JxHWnxE5Aslp0J2o-oAz-32" source="JxHWnxE5Aslp0J2o-oAz-59" target="JxHWnxE5Aslp0J2o-oAz-67">
          <mxGeometry relative="1" as="geometry" />
        </mxCell>
        <mxCell id="JxHWnxE5Aslp0J2o-oAz-57" style="edgeStyle=orthogonalEdgeStyle;rounded=0;orthogonalLoop=1;jettySize=auto;html=1;dashed=1;" edge="1" parent="JxHWnxE5Aslp0J2o-oAz-32" source="JxHWnxE5Aslp0J2o-oAz-59" target="JxHWnxE5Aslp0J2o-oAz-68">
          <mxGeometry relative="1" as="geometry" />
        </mxCell>
        <mxCell id="JxHWnxE5Aslp0J2o-oAz-58" style="edgeStyle=orthogonalEdgeStyle;rounded=0;orthogonalLoop=1;jettySize=auto;html=1;dashed=1;" edge="1" parent="JxHWnxE5Aslp0J2o-oAz-32" source="JxHWnxE5Aslp0J2o-oAz-59" target="JxHWnxE5Aslp0J2o-oAz-69">
          <mxGeometry relative="1" as="geometry" />
        </mxCell>
        <mxCell id="JxHWnxE5Aslp0J2o-oAz-59" value="加工中心出库结果处理" style="rounded=0;whiteSpace=wrap;html=1;fontSize=10;" vertex="1" parent="JxHWnxE5Aslp0J2o-oAz-32">
          <mxGeometry x="140" y="2308" width="80" height="40" as="geometry" />
        </mxCell>
        <mxCell id="JxHWnxE5Aslp0J2o-oAz-60" value="拣货加工" style="edgeStyle=orthogonalEdgeStyle;rounded=0;orthogonalLoop=1;jettySize=auto;html=1;entryX=0.5;entryY=0;entryDx=0;entryDy=0;" edge="1" parent="JxHWnxE5Aslp0J2o-oAz-32" source="JxHWnxE5Aslp0J2o-oAz-61" target="JxHWnxE5Aslp0J2o-oAz-62">
          <mxGeometry relative="1" as="geometry" />
        </mxCell>
        <mxCell id="JxHWnxE5Aslp0J2o-oAz-61" value="加工类型" style="rhombus;whiteSpace=wrap;html=1;" vertex="1" parent="JxHWnxE5Aslp0J2o-oAz-32">
          <mxGeometry x="40" y="2468" width="80" height="40" as="geometry" />
        </mxCell>
        <mxCell id="JxHWnxE5Aslp0J2o-oAz-62" value="处理加工结果" style="rounded=0;whiteSpace=wrap;html=1;fontSize=10;" vertex="1" parent="JxHWnxE5Aslp0J2o-oAz-32">
          <mxGeometry x="40" y="2548" width="80" height="40" as="geometry" />
        </mxCell>
        <mxCell id="JxHWnxE5Aslp0J2o-oAz-63" value="&lt;div&gt;加工区a号散件入库单、加工a号出库单&lt;/div&gt;" style="rounded=0;whiteSpace=wrap;html=1;fontSize=10;" vertex="1" parent="JxHWnxE5Aslp0J2o-oAz-32">
          <mxGeometry x="240" y="1428" width="80" height="40" as="geometry" />
        </mxCell>
        <mxCell id="JxHWnxE5Aslp0J2o-oAz-64" value="&lt;div&gt;创建加工区f号入库单、f号出库单&lt;/div&gt;" style="rounded=0;whiteSpace=wrap;html=1;fontSize=10;" vertex="1" parent="JxHWnxE5Aslp0J2o-oAz-32">
          <mxGeometry x="140" y="1428" width="80" height="40" as="geometry" />
        </mxCell>
        <mxCell id="JxHWnxE5Aslp0J2o-oAz-66" style="edgeStyle=orthogonalEdgeStyle;rounded=0;orthogonalLoop=1;jettySize=auto;html=1;entryX=0.5;entryY=0;entryDx=0;entryDy=0;" edge="1" parent="JxHWnxE5Aslp0J2o-oAz-32" source="JxHWnxE5Aslp0J2o-oAz-67" target="JxHWnxE5Aslp0J2o-oAz-61">
          <mxGeometry relative="1" as="geometry" />
        </mxCell>
        <mxCell id="JxHWnxE5Aslp0J2o-oAz-67" value="大仓入" style="rounded=0;whiteSpace=wrap;html=1;fontSize=10;" vertex="1" parent="JxHWnxE5Aslp0J2o-oAz-32">
          <mxGeometry x="40" y="2388" width="80" height="40" as="geometry" />
        </mxCell>
        <mxCell id="JxHWnxE5Aslp0J2o-oAz-68" value="加工区f号出、入" style="rounded=0;whiteSpace=wrap;html=1;fontSize=10;" vertex="1" parent="JxHWnxE5Aslp0J2o-oAz-32">
          <mxGeometry x="240" y="2388" width="80" height="40" as="geometry" />
        </mxCell>
        <mxCell id="JxHWnxE5Aslp0J2o-oAz-69" value="加工区a号出" style="rounded=0;whiteSpace=wrap;html=1;fontSize=10;" vertex="1" parent="JxHWnxE5Aslp0J2o-oAz-32">
          <mxGeometry x="140" y="2388" width="80" height="40" as="geometry" />
        </mxCell>
        <mxCell id="JxHWnxE5Aslp0J2o-oAz-70" value="cis" style="swimlane;startSize=20;html=1;" vertex="1" parent="JxHWnxE5Aslp0J2o-oAz-1">
          <mxGeometry x="680" y="20" width="120" height="3088" as="geometry" />
        </mxCell>
        <mxCell id="JxHWnxE5Aslp0J2o-oAz-71" value="捡货完成" style="rounded=0;whiteSpace=wrap;html=1;fontSize=10;" vertex="1" parent="JxHWnxE5Aslp0J2o-oAz-70">
          <mxGeometry x="20" y="1349" width="80" height="40" as="geometry" />
        </mxCell>
        <mxCell id="JxHWnxE5Aslp0J2o-oAz-72" value="下发余料入库单" style="rounded=0;whiteSpace=wrap;html=1;fontSize=10;" vertex="1" parent="JxHWnxE5Aslp0J2o-oAz-70">
          <mxGeometry x="21" y="2767" width="80" height="40" as="geometry" />
        </mxCell>
        <mxCell id="JxHWnxE5Aslp0J2o-oAz-73" style="edgeStyle=orthogonalEdgeStyle;rounded=0;orthogonalLoop=1;jettySize=auto;html=1;" edge="1" parent="JxHWnxE5Aslp0J2o-oAz-70" source="JxHWnxE5Aslp0J2o-oAz-74" target="JxHWnxE5Aslp0J2o-oAz-75">
          <mxGeometry relative="1" as="geometry" />
        </mxCell>
        <mxCell id="JxHWnxE5Aslp0J2o-oAz-74" value="接收入库结果" style="rounded=0;whiteSpace=wrap;html=1;fontSize=10;" vertex="1" parent="JxHWnxE5Aslp0J2o-oAz-70">
          <mxGeometry x="21" y="2847" width="80" height="40" as="geometry" />
        </mxCell>
        <mxCell id="JxHWnxE5Aslp0J2o-oAz-75" value="入库处理" style="rounded=0;whiteSpace=wrap;html=1;fontSize=10;" vertex="1" parent="JxHWnxE5Aslp0J2o-oAz-70">
          <mxGeometry x="21" y="2927" width="80" height="40" as="geometry" />
        </mxCell>
        <mxCell id="JxHWnxE5Aslp0J2o-oAz-76" value="下发入库单(拣货加工不下发wms&lt;span style=&quot;background-color: initial;&quot;&gt;)&lt;/span&gt;" style="rounded=0;whiteSpace=wrap;html=1;fontSize=10;" vertex="1" parent="JxHWnxE5Aslp0J2o-oAz-70">
          <mxGeometry x="20" y="1188" width="80" height="40" as="geometry" />
        </mxCell>
        <mxCell id="JxHWnxE5Aslp0J2o-oAz-77" value="下发出库单" style="rounded=0;whiteSpace=wrap;html=1;fontSize=10;" vertex="1" parent="JxHWnxE5Aslp0J2o-oAz-70">
          <mxGeometry x="20" y="1268" width="80" height="40" as="geometry" />
        </mxCell>
        <mxCell id="JxHWnxE5Aslp0J2o-oAz-78" value="flux入库并直接预占（预占单为拣货业务单）" style="rounded=0;whiteSpace=wrap;html=1;fontSize=10;" vertex="1" parent="JxHWnxE5Aslp0J2o-oAz-70">
          <mxGeometry x="20" y="2548" width="80" height="40" as="geometry" />
        </mxCell>
        <mxCell id="JxHWnxE5Aslp0J2o-oAz-79" value="&lt;div&gt;创建入库单、出库单（加实物、加预占）&lt;/div&gt;" style="rounded=0;whiteSpace=wrap;html=1;fontSize=10;" vertex="1" parent="JxHWnxE5Aslp0J2o-oAz-70">
          <mxGeometry x="20" y="1428" width="80" height="40" as="geometry" />
        </mxCell>
        <mxCell id="JxHWnxE5Aslp0J2o-oAz-80" value="&lt;div&gt;创建入库单、出库单&lt;/div&gt;" style="rounded=0;whiteSpace=wrap;html=1;fontSize=10;" vertex="1" parent="JxHWnxE5Aslp0J2o-oAz-70">
          <mxGeometry x="20" y="1508" width="80" height="40" as="geometry" />
        </mxCell>
        <mxCell id="JxHWnxE5Aslp0J2o-oAz-82" value="&lt;div&gt;&lt;span style=&quot;background-color: initial;&quot;&gt;只变动单据，添加流水，不加减库存（一出一入、抵消）&lt;/span&gt;&lt;br&gt;&lt;/div&gt;" style="rounded=0;whiteSpace=wrap;html=1;fontSize=10;" vertex="1" parent="JxHWnxE5Aslp0J2o-oAz-70">
          <mxGeometry x="21" y="2388" width="80" height="40" as="geometry" />
        </mxCell>
        <mxCell id="JxHWnxE5Aslp0J2o-oAz-83" value="加工区加工a号出库单处理（a号减预占，减实物）" style="rounded=0;whiteSpace=wrap;html=1;fontSize=10;" vertex="1" parent="JxHWnxE5Aslp0J2o-oAz-70">
          <mxGeometry x="21" y="2468" width="80" height="40" as="geometry" />
        </mxCell>
        <mxCell id="JxHWnxE5Aslp0J2o-oAz-84" value="flux" style="swimlane;startSize=20;html=1;" vertex="1" parent="JxHWnxE5Aslp0J2o-oAz-1">
          <mxGeometry x="800" y="20" width="120" height="3088" as="geometry" />
        </mxCell>
        <mxCell id="JxHWnxE5Aslp0J2o-oAz-85" value="捡货完成" style="rounded=0;whiteSpace=wrap;html=1;fontSize=10;" vertex="1" parent="JxHWnxE5Aslp0J2o-oAz-84">
          <mxGeometry x="20" y="1349" width="80" height="40" as="geometry" />
        </mxCell>
        <mxCell id="JxHWnxE5Aslp0J2o-oAz-86" value="接收余料入库" style="rounded=0;whiteSpace=wrap;html=1;fontSize=10;" vertex="1" parent="JxHWnxE5Aslp0J2o-oAz-84">
          <mxGeometry x="21" y="2767" width="80" height="40" as="geometry" />
        </mxCell>
        <mxCell id="JxHWnxE5Aslp0J2o-oAz-87" value="flux上架" style="rounded=0;whiteSpace=wrap;html=1;fontSize=10;" vertex="1" parent="JxHWnxE5Aslp0J2o-oAz-84">
          <mxGeometry x="21" y="2847" width="80" height="40" as="geometry" />
        </mxCell>
        <mxCell id="JxHWnxE5Aslp0J2o-oAz-88" value="下发入库单" style="rounded=0;whiteSpace=wrap;html=1;fontSize=10;" vertex="1" parent="JxHWnxE5Aslp0J2o-oAz-84">
          <mxGeometry x="20" y="1188" width="80" height="40" as="geometry" />
        </mxCell>
        <mxCell id="JxHWnxE5Aslp0J2o-oAz-89" value="下发出库单" style="rounded=0;whiteSpace=wrap;html=1;fontSize=10;" vertex="1" parent="JxHWnxE5Aslp0J2o-oAz-84">
          <mxGeometry x="20" y="1268" width="80" height="40" as="geometry" />
        </mxCell>
        <mxCell id="JxHWnxE5Aslp0J2o-oAz-90" value="fcu加工系统" style="swimlane;startSize=20;html=1;" vertex="1" parent="JxHWnxE5Aslp0J2o-oAz-1">
          <mxGeometry x="920" y="20" width="120" height="3088" as="geometry" />
        </mxCell>
        <mxCell id="JxHWnxE5Aslp0J2o-oAz-91" value="接收fcu组装计划" style="rounded=0;whiteSpace=wrap;html=1;fontSize=10;" vertex="1" parent="JxHWnxE5Aslp0J2o-oAz-90">
          <mxGeometry x="20" y="689" width="80" height="40" as="geometry" />
        </mxCell>
        <mxCell id="JxHWnxE5Aslp0J2o-oAz-92" value="加工完成" style="rounded=0;whiteSpace=wrap;html=1;fontSize=10;" vertex="1" parent="JxHWnxE5Aslp0J2o-oAz-90">
          <mxGeometry x="20" y="1847" width="80" height="40" as="geometry" />
        </mxCell>
        <mxCell id="JxHWnxE5Aslp0J2o-oAz-93" value="接受拣货结果" style="rounded=0;whiteSpace=wrap;html=1;fontSize=10;" vertex="1" parent="JxHWnxE5Aslp0J2o-oAz-90">
          <mxGeometry x="20" y="1668" width="80" height="40" as="geometry" />
        </mxCell>
        <mxCell id="JxHWnxE5Aslp0J2o-oAz-94" value="打印flux余料拣货标签" style="rounded=0;whiteSpace=wrap;html=1;fontSize=10;" vertex="1" parent="JxHWnxE5Aslp0J2o-oAz-90">
          <mxGeometry x="20" y="2157" width="80" height="40" as="geometry" />
        </mxCell>
        <mxCell id="JxHWnxE5Aslp0J2o-oAz-95" value="加工完成" style="rounded=0;whiteSpace=wrap;html=1;fontSize=10;" vertex="1" parent="JxHWnxE5Aslp0J2o-oAz-90">
          <mxGeometry x="20" y="2228" width="80" height="40" as="geometry" />
        </mxCell>
        <mxCell id="JxHWnxE5Aslp0J2o-oAz-96" style="edgeStyle=orthogonalEdgeStyle;rounded=0;orthogonalLoop=1;jettySize=auto;html=1;" edge="1" parent="JxHWnxE5Aslp0J2o-oAz-1" source="JxHWnxE5Aslp0J2o-oAz-10" target="JxHWnxE5Aslp0J2o-oAz-33">
          <mxGeometry relative="1" as="geometry" />
        </mxCell>
        <mxCell id="JxHWnxE5Aslp0J2o-oAz-97" style="edgeStyle=orthogonalEdgeStyle;rounded=0;orthogonalLoop=1;jettySize=auto;html=1;entryX=1;entryY=0.5;entryDx=0;entryDy=0;exitX=0.5;exitY=1;exitDx=0;exitDy=0;" edge="1" parent="JxHWnxE5Aslp0J2o-oAz-1" source="JxHWnxE5Aslp0J2o-oAz-33" target="JxHWnxE5Aslp0J2o-oAz-11">
          <mxGeometry relative="1" as="geometry" />
        </mxCell>
        <mxCell id="JxHWnxE5Aslp0J2o-oAz-98" style="edgeStyle=orthogonalEdgeStyle;rounded=0;orthogonalLoop=1;jettySize=auto;html=1;" edge="1" parent="JxHWnxE5Aslp0J2o-oAz-1" source="JxHWnxE5Aslp0J2o-oAz-16" target="JxHWnxE5Aslp0J2o-oAz-35">
          <mxGeometry relative="1" as="geometry" />
        </mxCell>
        <mxCell id="JxHWnxE5Aslp0J2o-oAz-99" style="edgeStyle=orthogonalEdgeStyle;rounded=0;orthogonalLoop=1;jettySize=auto;html=1;entryX=1;entryY=0.5;entryDx=0;entryDy=0;exitX=0.5;exitY=1;exitDx=0;exitDy=0;" edge="1" parent="JxHWnxE5Aslp0J2o-oAz-1" source="JxHWnxE5Aslp0J2o-oAz-91" target="JxHWnxE5Aslp0J2o-oAz-13">
          <mxGeometry relative="1" as="geometry" />
        </mxCell>
        <mxCell id="JxHWnxE5Aslp0J2o-oAz-100" style="edgeStyle=orthogonalEdgeStyle;rounded=0;orthogonalLoop=1;jettySize=auto;html=1;" edge="1" parent="JxHWnxE5Aslp0J2o-oAz-1" source="JxHWnxE5Aslp0J2o-oAz-85" target="JxHWnxE5Aslp0J2o-oAz-71">
          <mxGeometry relative="1" as="geometry" />
        </mxCell>
        <mxCell id="JxHWnxE5Aslp0J2o-oAz-101" style="edgeStyle=orthogonalEdgeStyle;rounded=0;orthogonalLoop=1;jettySize=auto;html=1;" edge="1" parent="JxHWnxE5Aslp0J2o-oAz-1" source="JxHWnxE5Aslp0J2o-oAz-71" target="JxHWnxE5Aslp0J2o-oAz-42">
          <mxGeometry relative="1" as="geometry" />
        </mxCell>
        <mxCell id="JxHWnxE5Aslp0J2o-oAz-102" style="edgeStyle=orthogonalEdgeStyle;rounded=0;orthogonalLoop=1;jettySize=auto;html=1;entryX=1;entryY=0.5;entryDx=0;entryDy=0;" edge="1" parent="JxHWnxE5Aslp0J2o-oAz-1" source="JxHWnxE5Aslp0J2o-oAz-42" target="JxHWnxE5Aslp0J2o-oAz-18">
          <mxGeometry relative="1" as="geometry" />
        </mxCell>
        <mxCell id="JxHWnxE5Aslp0J2o-oAz-103" style="edgeStyle=orthogonalEdgeStyle;rounded=0;orthogonalLoop=1;jettySize=auto;html=1;entryX=1;entryY=0.5;entryDx=0;entryDy=0;" edge="1" parent="JxHWnxE5Aslp0J2o-oAz-1" source="JxHWnxE5Aslp0J2o-oAz-92" target="JxHWnxE5Aslp0J2o-oAz-20">
          <mxGeometry relative="1" as="geometry" />
        </mxCell>
        <mxCell id="JxHWnxE5Aslp0J2o-oAz-104" style="edgeStyle=orthogonalEdgeStyle;rounded=0;orthogonalLoop=1;jettySize=auto;html=1;entryX=0;entryY=0.5;entryDx=0;entryDy=0;" edge="1" parent="JxHWnxE5Aslp0J2o-oAz-1" source="JxHWnxE5Aslp0J2o-oAz-43" target="JxHWnxE5Aslp0J2o-oAz-72">
          <mxGeometry relative="1" as="geometry" />
        </mxCell>
        <mxCell id="JxHWnxE5Aslp0J2o-oAz-105" style="edgeStyle=orthogonalEdgeStyle;rounded=0;orthogonalLoop=1;jettySize=auto;html=1;entryX=0;entryY=0.5;entryDx=0;entryDy=0;" edge="1" parent="JxHWnxE5Aslp0J2o-oAz-1" source="JxHWnxE5Aslp0J2o-oAz-72" target="JxHWnxE5Aslp0J2o-oAz-86">
          <mxGeometry relative="1" as="geometry" />
        </mxCell>
        <mxCell id="JxHWnxE5Aslp0J2o-oAz-106" style="edgeStyle=orthogonalEdgeStyle;rounded=0;orthogonalLoop=1;jettySize=auto;html=1;" edge="1" parent="JxHWnxE5Aslp0J2o-oAz-1" source="JxHWnxE5Aslp0J2o-oAz-25" target="JxHWnxE5Aslp0J2o-oAz-93">
          <mxGeometry relative="1" as="geometry" />
        </mxCell>
        <mxCell id="JxHWnxE5Aslp0J2o-oAz-107" style="edgeStyle=orthogonalEdgeStyle;rounded=0;orthogonalLoop=1;jettySize=auto;html=1;" edge="1" parent="JxHWnxE5Aslp0J2o-oAz-1" source="JxHWnxE5Aslp0J2o-oAz-31" target="JxHWnxE5Aslp0J2o-oAz-94">
          <mxGeometry relative="1" as="geometry" />
        </mxCell>
        <mxCell id="JxHWnxE5Aslp0J2o-oAz-108" style="edgeStyle=orthogonalEdgeStyle;rounded=0;orthogonalLoop=1;jettySize=auto;html=1;" edge="1" parent="JxHWnxE5Aslp0J2o-oAz-1" source="JxHWnxE5Aslp0J2o-oAz-26" target="JxHWnxE5Aslp0J2o-oAz-44">
          <mxGeometry relative="1" as="geometry" />
        </mxCell>
        <mxCell id="JxHWnxE5Aslp0J2o-oAz-109" style="edgeStyle=orthogonalEdgeStyle;rounded=0;orthogonalLoop=1;jettySize=auto;html=1;" edge="1" parent="JxHWnxE5Aslp0J2o-oAz-1" source="JxHWnxE5Aslp0J2o-oAz-44" target="JxHWnxE5Aslp0J2o-oAz-30">
          <mxGeometry relative="1" as="geometry" />
        </mxCell>
        <mxCell id="JxHWnxE5Aslp0J2o-oAz-110" style="edgeStyle=orthogonalEdgeStyle;rounded=0;orthogonalLoop=1;jettySize=auto;html=1;entryX=0.5;entryY=0;entryDx=0;entryDy=0;" edge="1" parent="JxHWnxE5Aslp0J2o-oAz-1" source="JxHWnxE5Aslp0J2o-oAz-21" target="JxHWnxE5Aslp0J2o-oAz-91">
          <mxGeometry relative="1" as="geometry">
            <mxPoint x="120" y="648.9999999999998" as="targetPoint" />
          </mxGeometry>
        </mxCell>
        <mxCell id="JxHWnxE5Aslp0J2o-oAz-111" style="edgeStyle=orthogonalEdgeStyle;rounded=0;orthogonalLoop=1;jettySize=auto;html=1;" edge="1" parent="JxHWnxE5Aslp0J2o-oAz-1" source="JxHWnxE5Aslp0J2o-oAz-87" target="JxHWnxE5Aslp0J2o-oAz-74">
          <mxGeometry relative="1" as="geometry" />
        </mxCell>
        <mxCell id="JxHWnxE5Aslp0J2o-oAz-112" style="edgeStyle=orthogonalEdgeStyle;rounded=0;orthogonalLoop=1;jettySize=auto;html=1;" edge="1" parent="JxHWnxE5Aslp0J2o-oAz-1" source="JxHWnxE5Aslp0J2o-oAz-75" target="JxHWnxE5Aslp0J2o-oAz-47">
          <mxGeometry relative="1" as="geometry" />
        </mxCell>
        <mxCell id="JxHWnxE5Aslp0J2o-oAz-113" style="edgeStyle=orthogonalEdgeStyle;rounded=0;orthogonalLoop=1;jettySize=auto;html=1;" edge="1" parent="JxHWnxE5Aslp0J2o-oAz-1" source="JxHWnxE5Aslp0J2o-oAz-52" target="JxHWnxE5Aslp0J2o-oAz-76">
          <mxGeometry relative="1" as="geometry" />
        </mxCell>
        <mxCell id="JxHWnxE5Aslp0J2o-oAz-114" style="edgeStyle=orthogonalEdgeStyle;rounded=0;orthogonalLoop=1;jettySize=auto;html=1;entryX=0;entryY=0.5;entryDx=0;entryDy=0;" edge="1" parent="JxHWnxE5Aslp0J2o-oAz-1" source="JxHWnxE5Aslp0J2o-oAz-76" target="JxHWnxE5Aslp0J2o-oAz-88">
          <mxGeometry relative="1" as="geometry" />
        </mxCell>
        <mxCell id="JxHWnxE5Aslp0J2o-oAz-115" style="edgeStyle=orthogonalEdgeStyle;rounded=0;orthogonalLoop=1;jettySize=auto;html=1;entryX=0;entryY=0.5;entryDx=0;entryDy=0;" edge="1" parent="JxHWnxE5Aslp0J2o-oAz-1" source="JxHWnxE5Aslp0J2o-oAz-53" target="JxHWnxE5Aslp0J2o-oAz-77">
          <mxGeometry relative="1" as="geometry" />
        </mxCell>
        <mxCell id="JxHWnxE5Aslp0J2o-oAz-116" style="edgeStyle=orthogonalEdgeStyle;rounded=0;orthogonalLoop=1;jettySize=auto;html=1;entryX=0;entryY=0.5;entryDx=0;entryDy=0;" edge="1" parent="JxHWnxE5Aslp0J2o-oAz-1" source="JxHWnxE5Aslp0J2o-oAz-77" target="JxHWnxE5Aslp0J2o-oAz-89">
          <mxGeometry relative="1" as="geometry" />
        </mxCell>
        <mxCell id="JxHWnxE5Aslp0J2o-oAz-117" style="edgeStyle=orthogonalEdgeStyle;rounded=0;orthogonalLoop=1;jettySize=auto;html=1;entryX=1;entryY=0.5;entryDx=0;entryDy=0;" edge="1" parent="JxHWnxE5Aslp0J2o-oAz-1" source="JxHWnxE5Aslp0J2o-oAz-95" target="JxHWnxE5Aslp0J2o-oAz-55">
          <mxGeometry relative="1" as="geometry" />
        </mxCell>
        <mxCell id="JxHWnxE5Aslp0J2o-oAz-118" style="edgeStyle=orthogonalEdgeStyle;rounded=0;orthogonalLoop=1;jettySize=auto;html=1;" edge="1" parent="JxHWnxE5Aslp0J2o-oAz-1" source="JxHWnxE5Aslp0J2o-oAz-62" target="JxHWnxE5Aslp0J2o-oAz-78">
          <mxGeometry relative="1" as="geometry" />
        </mxCell>
        <mxCell id="JxHWnxE5Aslp0J2o-oAz-119" style="edgeStyle=orthogonalEdgeStyle;rounded=0;orthogonalLoop=1;jettySize=auto;html=1;entryX=0;entryY=0.5;entryDx=0;entryDy=0;" edge="1" parent="JxHWnxE5Aslp0J2o-oAz-1" source="JxHWnxE5Aslp0J2o-oAz-63" target="JxHWnxE5Aslp0J2o-oAz-79">
          <mxGeometry relative="1" as="geometry" />
        </mxCell>
        <mxCell id="JxHWnxE5Aslp0J2o-oAz-120" style="edgeStyle=orthogonalEdgeStyle;rounded=0;orthogonalLoop=1;jettySize=auto;html=1;entryX=0;entryY=0.5;entryDx=0;entryDy=0;exitX=0.5;exitY=1;exitDx=0;exitDy=0;" edge="1" parent="JxHWnxE5Aslp0J2o-oAz-1" source="JxHWnxE5Aslp0J2o-oAz-64" target="JxHWnxE5Aslp0J2o-oAz-80">
          <mxGeometry relative="1" as="geometry" />
        </mxCell>
        <mxCell id="JxHWnxE5Aslp0J2o-oAz-122" style="edgeStyle=orthogonalEdgeStyle;rounded=0;orthogonalLoop=1;jettySize=auto;html=1;" edge="1" parent="JxHWnxE5Aslp0J2o-oAz-1" source="JxHWnxE5Aslp0J2o-oAz-68" target="JxHWnxE5Aslp0J2o-oAz-82">
          <mxGeometry relative="1" as="geometry" />
        </mxCell>
        <mxCell id="JxHWnxE5Aslp0J2o-oAz-123" style="edgeStyle=orthogonalEdgeStyle;rounded=0;orthogonalLoop=1;jettySize=auto;html=1;entryX=0;entryY=0.5;entryDx=0;entryDy=0;exitX=0.5;exitY=1;exitDx=0;exitDy=0;" edge="1" parent="JxHWnxE5Aslp0J2o-oAz-1" source="JxHWnxE5Aslp0J2o-oAz-69" target="JxHWnxE5Aslp0J2o-oAz-83">
          <mxGeometry relative="1" as="geometry" />
        </mxCell>
        <mxCell id="JxHWnxE5Aslp0J2o-oAz-124" style="edgeStyle=orthogonalEdgeStyle;rounded=0;orthogonalLoop=1;jettySize=auto;html=1;entryX=0.5;entryY=0;entryDx=0;entryDy=0;exitX=0;exitY=0.5;exitDx=0;exitDy=0;" edge="1" parent="1">
          <mxGeometry relative="1" as="geometry">
            <mxPoint x="2030" y="358" as="sourcePoint" />
            <mxPoint x="2010" y="398" as="targetPoint" />
          </mxGeometry>
        </mxCell>
        <mxCell id="JxHWnxE5Aslp0J2o-oAz-125" value="cets" style="edgeLabel;html=1;align=center;verticalAlign=middle;resizable=0;points=[];" vertex="1" connectable="0" parent="JxHWnxE5Aslp0J2o-oAz-124">
          <mxGeometry x="0.0694" y="-1" relative="1" as="geometry">
            <mxPoint as="offset" />
          </mxGeometry>
        </mxCell>
        <mxCell id="JxHWnxE5Aslp0J2o-oAz-126" value="1. CN_GD_HZ a号大仓出库单（直接出库）&lt;div&gt;2.加工区a号入库单（直接入，不加在途）&lt;/div&gt;&lt;div&gt;3.加工区a号出库单（预占a号）&lt;/div&gt;&lt;div&gt;4.加工区f号入库单（不加在途）&lt;/div&gt;&lt;div&gt;5.加工区f号出库单（不减在途）&lt;/div&gt;&lt;div&gt;6.CN_GD_HZ&amp;nbsp;f号入库单（加在途）&lt;/div&gt;&lt;div&gt;&lt;br&gt;&lt;/div&gt;&lt;div&gt;拣货完成：&lt;/div&gt;&lt;div&gt;生成加工区a号入库单、&lt;span style=&quot;background-color: initial;&quot;&gt;a号出库单（&lt;/span&gt;&lt;span style=&quot;background-color: initial;&quot;&gt;入库、预占操作指令合并，加实物加预占）&lt;/span&gt;&lt;/div&gt;&lt;div&gt;&lt;span style=&quot;background-color: initial;&quot;&gt;&lt;br&gt;&lt;/span&gt;&lt;/div&gt;&lt;div&gt;f号入库单（不加在途）&lt;/div&gt;&lt;div&gt;f号出库单（不预占）&lt;/div&gt;&lt;div&gt;大仓f号入库单（加在途）&lt;/div&gt;&lt;div&gt;&lt;br&gt;&lt;/div&gt;&lt;div&gt;&lt;br&gt;&lt;/div&gt;&lt;div&gt;加工结果通知：&lt;/div&gt;&lt;div&gt;加工区出库单出库（减预占减实物）&lt;/div&gt;&lt;div&gt;加工区f号入库单入库并直接出库（操作合并，只操作单据，不操作库存）&lt;/div&gt;&lt;div&gt;CN_GD_HZ&amp;nbsp;f号入库（减在途加实物、可用）&lt;br&gt;&lt;/div&gt;" style="rounded=0;whiteSpace=wrap;html=1;align=left;verticalAlign=top;" vertex="1" parent="1">
          <mxGeometry x="1620" y="1458" width="250" height="400" as="geometry" />
        </mxCell>
      </root>
    </mxGraphModel>
  </diagram>
</mxfile>
